<svg id="Layer_1" data-name="Layer 1" xmlns="http://www.w3.org/2000/svg" viewBox="0 0 353.2 86.81"><path d="M346.19,44.71A6.61,6.61,0,0,0,340,48.16a6.74,6.74,0,0,0-6-3.45,5.53,5.53,0,0,0-5.13,2.94v-2.5h-5.36v19h5.36V52.68a3.41,3.41,0,0,1,3.67-3.45c1.94,0,3.33,1.54,3.33,3.74V64.16H341V52.68a3.53,3.53,0,1,1,7.05.29V64.16h5.14V52.05a7,7,0,0,0-7-7.34M309.7,60.05a5.41,5.41,0,1,1,5.21-5.43,5.4,5.4,0,0,1-5.21,5.43m0,4.52A10.25,10.25,0,0,0,320,54.62a10.23,10.23,0,0,0-10.31-9.91c-5.66,0-10.39,4.52-10.39,9.91a10.29,10.29,0,0,0,10.39,9.95m-19.73,0a10,10,0,0,0,7.6-3.34l-3.56-3a5.6,5.6,0,0,1-4,1.83,5.42,5.42,0,0,1,0-10.82A5.46,5.46,0,0,1,293.9,51l3.56-3.05A9.92,9.92,0,0,0,290,44.71c-5.61,0-10.38,4.52-10.38,9.91A10.28,10.28,0,0,0,290,64.57m-16.85,0a3.36,3.36,0,0,0,3.26-3.42,3.32,3.32,0,0,0-3.26-3.26,3.34,3.34,0,1,0,0,6.68m-17.05,6.16c3,0,5.4-1.94,6.83-5.65l7.78-19.93h-5.47l-4.73,13.33-5-13.33H250l7.89,19.16-.67,1.4a2.42,2.42,0,0,1-2.23,1,5.91,5.91,0,0,1-2.5-.84l-1.14,3.67a10.91,10.91,0,0,0,4.77,1.17M242.19,48.68V45.15h-5.36v19h5.36V55.06c0-3.56,2.53-5.83,6.49-5.83V44.71a7.07,7.07,0,0,0-6.49,4M222.8,60.86c-1.84,0-3.19-1-3.19-2.49s1.54-2.68,3.48-2.68a12.08,12.08,0,0,1,4.08.69v1.77c-.37,1.76-2.32,2.71-4.37,2.71M224,44.71a17.42,17.42,0,0,0-7.93,2.1l1.8,3.56A10.73,10.73,0,0,1,222.8,49c3.12,0,4.37,1.76,4.37,3.78v.36a13.83,13.83,0,0,0-4.85-.95c-4.4,0-7.89,2.57-7.89,6.31s3.12,6.06,7.16,6.06a7.56,7.56,0,0,0,5.58-2.35v1.91h5.17V52.79c0-5-3.38-8.08-8.33-8.08m-20,0a6.76,6.76,0,0,0-5.72,2.83V45.15h-5.36v19h5.36V52.79l0,.11a3.77,3.77,0,0,1,4-3.67c2.13,0,3.6,1.61,3.6,4V64.13H211V52.05c0-4.29-2.94-7.34-7-7.34M179.1,60.05a5.41,5.41,0,1,1,5.21-5.43,5.41,5.41,0,0,1-5.21,5.43m0,4.52a10.25,10.25,0,0,0,10.31-9.95,10.23,10.23,0,0,0-10.31-9.91c-5.65,0-10.39,4.52-10.39,9.91a10.3,10.3,0,0,0,10.39,9.95m-19.32-.44h5.36v-19h-5.36Zm2.72-21.58a2.9,2.9,0,0,0,0-5.8,2.9,2.9,0,1,0,0,5.8m-7.28,16.88a2.75,2.75,0,0,1-1.84.62,1.93,1.93,0,0,1-1.79-2.12V49.48h4.11V45.15h-4.11V39.94h-5.14v5.21h-2.61v4.33h2.61v9.29a5.51,5.51,0,0,0,5.69,5.8,6.9,6.9,0,0,0,4.36-1.65ZM142.76,45.15H136.6l-7,8.19V38.48h-5.36V64.13h5.36V59.47L131.83,57l4.7,7.12h6.16l-7.3-10.57Zm-28.45,19h5.36v-19h-5.36ZM117,42.55a2.9,2.9,0,1,0-2.93-2.94A2.91,2.91,0,0,0,117,42.55M92.2,59.21V43.83h4.33c4.81,0,8.22,3.2,8.22,7.67s-3.41,7.71-8.22,7.71Zm-5.39,4.92h9c8.47,0,14.49-5.25,14.49-12.63s-6-12.58-14.49-12.58h-9Z" style="fill:#0047ba"/><path d="M12.29,41.49H50.74V52.31c0,12-8,20.55-19.18,20.55S12.29,64.33,12.29,52.31ZM0,28V50.57C0,71.76,13.12,86.81,31.56,86.81S63,71.76,63,50.57V28Z" style="fill:#0047ba"/><path d="M8,16.07A8,8,0,1,0,0,8a8,8,0,0,0,8,8" style="fill:#0047ba"/><path d="M47,8H63A8,8,0,0,0,47,8" style="fill:#0047ba"/></svg>